<?xml version="1.0" encoding="iso-8859-1"?>
<!-- Generator: Adobe Illustrator 18.0.0, SVG Export Plug-In . SVG Version: 6.00 Build 0)  -->
<!DOCTYPE svg PUBLIC "-//W3C//DTD SVG 1.1//EN" "http://www.w3.org/Graphics/SVG/1.1/DTD/svg11.dtd">
<svg version="1.1" id="Capa_1" xmlns="http://www.w3.org/2000/svg" xmlns:xlink="http://www.w3.org/1999/xlink" x="0px" y="0px"
	 viewBox="0 0 481.697 481.697" style="enable-background:new 0 0 481.697 481.697;" xml:space="preserve">
<g>
	<path d="M256.641,239.374c-14.043-5.188-24.129-18.598-24.129-34.422c0-20.301,16.5-36.801,36.801-36.801h25.5
		c6.477-9.172,17.18-15.051,28.855-15.051h83.012c11.68,0,22.379,5.879,28.871,15.051h25.5c1.387,0,2.711,0.254,4.066,0.41v-8.117
		v-0.016V92.311c0-14.891-12.055-26.965-26.949-26.965H273.535c-17.051,0-30.859-13.82-30.859-30.859v-2.852
		c0-14.895-12.07-26.965-26.98-26.965H87.609c-14.859,0-26.949,12.07-26.949,26.965v6.761c0,14.885-12.066,26.95-26.95,26.95h-6.761
		C12.055,65.347,0,77.421,0,92.311V308.39c0,17.902,14.5,32.402,32.371,32.402h71.094h34.563h106.855l-6.035-67.832
		c-0.836-9.836,2.488-19.641,9.172-26.969C250.527,243.28,253.488,241.171,256.641,239.374z"/>
	<path d="M456.309,250.692H274.071c-5.39,0-10.528,2.27-14.184,6.24c-3.625,3.973-5.423,9.3-4.966,14.657l16.706,187.926
		c0.867,9.914,9.173,17.511,19.118,17.511h148.871c9.945,0,18.235-7.597,19.133-17.511l16.675-187.926
		c0.489-5.357-1.323-10.684-4.965-14.657C466.836,252.962,461.683,250.692,456.309,250.692z M316.357,426.861
		c-0.331,0.016-0.631,0.03-0.93,0.03c-6.273,0-11.584-4.838-12.041-11.189l-6.525-85.736c-0.505-6.651,4.475-12.467,11.159-12.971
		c0.315-0.032,0.629-0.032,0.945-0.032c6.271,0,11.552,4.838,12.025,11.19l6.492,85.72
		C328.004,420.541,323.007,426.356,316.357,426.861z M377.081,420.32c0,6.683-5.423,12.088-12.088,12.088
		c-6.683,0-12.104-5.405-12.104-12.088V307.413c0-6.682,5.422-12.103,12.104-12.103c6.665,0,12.088,5.422,12.088,12.103V420.32z
		 M426.994,415.703c-0.488,6.351-5.784,11.189-12.057,11.189c-0.314,0-0.615-0.015-0.93-0.03
		c-6.668-0.505-11.647-6.32-11.145-12.987l6.495-85.72c0.473-6.336,5.784-11.19,12.024-11.19c0.331,0,0.646,0,0.977,0.032
		c6.652,0.504,11.631,6.319,11.127,12.971L426.994,415.703z"/>
	<path d="M461.051,184.294h-35.648c-1.893-8.59-9.552-15.052-18.723-15.052h-83.012c-9.173,0-16.815,6.462-18.707,15.052h-35.65
		c-11.426,0-20.66,9.252-20.66,20.662c0,11.41,9.234,20.662,20.66,20.662h191.74c11.41,0,20.646-9.252,20.646-20.662
		C481.697,193.546,472.461,184.294,461.051,184.294z"/>
</g>
<g>
</g>
<g>
</g>
<g>
</g>
<g>
</g>
<g>
</g>
<g>
</g>
<g>
</g>
<g>
</g>
<g>
</g>
<g>
</g>
<g>
</g>
<g>
</g>
<g>
</g>
<g>
</g>
<g>
</g>
</svg>
