<?xml version="1.0" encoding="iso-8859-1"?>
<!-- Generator: Adobe Illustrator 19.0.0, SVG Export Plug-In . SVG Version: 6.00 Build 0)  -->
<svg version="1.1" id="Layer_1" xmlns="http://www.w3.org/2000/svg" xmlns:xlink="http://www.w3.org/1999/xlink" x="0px" y="0px"
	 viewBox="0 0 512 512" style="enable-background:new 0 0 512 512;" xml:space="preserve">
<g transform="translate(0 1)">
	<path style="fill:#FDCC00;" d="M268.8,408.6c0-52.053,33.28-93.867,85.333-93.867c5.973,0,11.947,0.853,17.067,1.707V58.733
		h-85.333v51.2H166.4v-51.2H64V485.4h244.907C284.16,468.333,268.8,440.173,268.8,408.6"/>
	<polygon style="fill:#FFFFFF;" points="46.933,485.4 64,485.4 64,58.733 46.933,58.733 	"/>
	<polygon style="fill:#FFA800;" points="371.2,314.733 388.267,314.733 388.267,58.733 371.2,58.733 	"/>
	<path style="fill:#FFE100;" d="M277.333,408.6c0-46.08,33.28-84.48,76.8-92.16V92.867h-68.267v17.067H149.333V92.867H81.067v358.4
		h206.507C280.747,438.467,277.333,423.96,277.333,408.6"/>
	<path style="fill:#FDCC00;" d="M251.733,41.667c0-18.773-15.36-34.133-34.133-34.133s-34.133,15.36-34.133,34.133h-34.133v68.267
		h110.933V41.667H251.733z"/>
	<polygon style="fill:#FFA800;" points="260.267,109.933 285.867,109.933 285.867,41.667 260.267,41.667 	"/>
	<path style="fill:#00DA6C;" d="M439.467,408.6c0-52.053-36.693-93.867-81.067-93.867s-81.067,41.813-81.067,93.867
		s36.693,93.867,81.067,93.867S439.467,460.653,439.467,408.6"/>
	<path style="fill:#00AD55;" d="M371.2,314.733c-2.56,0-4.267,0-6.827,0c41.813,3.413,75.093,44.373,75.093,93.867
		s-33.28,89.6-75.093,93.867c2.56,0,4.267,0,6.827,0c52.053,0,93.867-41.813,93.867-93.867S423.253,314.733,371.2,314.733"/>
	<path d="M371.2,511c-56.32,0-102.4-46.08-102.4-102.4s46.08-102.4,102.4-102.4s102.4,46.08,102.4,102.4S427.52,511,371.2,511z
		 M371.2,323.267c-46.933,0-85.333,38.4-85.333,85.333s38.4,85.333,85.333,85.333s85.333-38.4,85.333-85.333
		S418.133,323.267,371.2,323.267z"/>
	<path d="M285.867,118.467H149.333c-5.12,0-8.533-3.413-8.533-8.533V41.667c0-5.12,3.413-8.533,8.533-8.533h26.453
		C180.053,13.507,197.12-1,217.6-1s37.547,14.507,41.813,34.133h26.453c5.12,0,8.533,3.413,8.533,8.533v68.267
		C294.4,115.053,290.133,118.467,285.867,118.467z M157.867,101.4h119.467V50.2h-25.6c-5.12,0-8.533-3.413-8.533-8.533
		c0-14.507-11.093-25.6-25.6-25.6c-14.507,0-25.6,11.093-25.6,25.6c0,5.12-3.413,8.533-8.533,8.533h-25.6V101.4z M260.267,41.667
		L260.267,41.667L260.267,41.667z"/>
	<path d="M251.733,169.667H132.267c-5.12,0-8.533-3.413-8.533-8.533c0-5.12,3.413-8.533,8.533-8.533h119.467
		c5.12,0,8.533,3.413,8.533,8.533C260.267,166.253,256,169.667,251.733,169.667z"/>
	<path d="M311.467,169.667h-25.6c-5.12,0-8.533-3.413-8.533-8.533c0-5.12,3.413-8.533,8.533-8.533h25.6
		c5.12,0,8.533,3.413,8.533,8.533C320,166.253,315.733,169.667,311.467,169.667z"/>
	<path d="M311.467,203.8h-85.333c-5.12,0-8.533-3.413-8.533-8.533c0-5.12,3.413-8.533,8.533-8.533h85.333
		c5.12,0,8.533,3.413,8.533,8.533C320,200.387,315.733,203.8,311.467,203.8z"/>
	<path d="M311.467,237.933h-34.133c-5.12,0-8.533-3.413-8.533-8.533c0-5.12,3.413-8.533,8.533-8.533h34.133
		c5.12,0,8.533,3.413,8.533,8.533C320,234.52,315.733,237.933,311.467,237.933z"/>
	<path d="M192,203.8h-59.733c-5.12,0-8.533-3.413-8.533-8.533c0-5.12,3.413-8.533,8.533-8.533H192c5.12,0,8.533,3.413,8.533,8.533
		C200.533,200.387,196.267,203.8,192,203.8z"/>
	<path d="M157.867,237.933h-25.6c-5.12,0-8.533-3.413-8.533-8.533c0-5.12,3.413-8.533,8.533-8.533h25.6
		c5.12,0,8.533,3.413,8.533,8.533C166.4,234.52,162.133,237.933,157.867,237.933z"/>
	<path d="M200.533,272.067h-68.267c-5.12,0-8.533-3.413-8.533-8.533c0-5.12,3.413-8.533,8.533-8.533h68.267
		c5.12,0,8.533,3.413,8.533,8.533C209.067,268.653,204.8,272.067,200.533,272.067z"/>
	<path d="M243.2,237.933H192c-5.12,0-8.533-3.413-8.533-8.533c0-5.12,3.413-8.533,8.533-8.533h51.2c5.12,0,8.533,3.413,8.533,8.533
		C251.733,234.52,247.467,237.933,243.2,237.933z"/>
	<path d="M311.467,272.067h-8.533c-5.12,0-8.533-3.413-8.533-8.533c0-5.12,3.413-8.533,8.533-8.533h8.533
		c5.12,0,8.533,3.413,8.533,8.533C320,268.653,315.733,272.067,311.467,272.067z"/>
	<path d="M268.8,272.067h-34.133c-5.12,0-8.533-3.413-8.533-8.533c0-5.12,3.413-8.533,8.533-8.533H268.8
		c5.12,0,8.533,3.413,8.533,8.533C277.333,268.653,273.067,272.067,268.8,272.067z"/>
	<path d="M140.8,306.2h-8.533c-5.12,0-8.533-3.413-8.533-8.533s3.413-8.533,8.533-8.533h8.533c5.12,0,8.533,3.413,8.533,8.533
		S145.067,306.2,140.8,306.2z"/>
	<path d="M311.467,306.2H243.2c-5.12,0-8.533-3.413-8.533-8.533s3.413-8.533,8.533-8.533h68.267c5.12,0,8.533,3.413,8.533,8.533
		S315.733,306.2,311.467,306.2z"/>
	<path d="M209.067,306.2h-34.133c-5.12,0-8.533-3.413-8.533-8.533s3.413-8.533,8.533-8.533h34.133c5.12,0,8.533,3.413,8.533,8.533
		S213.333,306.2,209.067,306.2z"/>
	<path d="M317.44,493.933H46.933c-5.12,0-8.533-3.413-8.533-8.533V178.2c0-5.12,3.413-8.533,8.533-8.533s8.533,3.413,8.533,8.533
		v298.667h239.787C278.187,458.093,268.8,434.2,268.8,408.6c0-56.32,46.08-102.4,102.4-102.4c2.56,0,5.973,0,8.533,0V67.267H294.4
		v42.667c0,5.12-3.413,8.533-8.533,8.533H149.333c-5.12,0-8.533-3.413-8.533-8.533V67.267H55.467v42.667
		c0,5.12-3.413,8.533-8.533,8.533s-8.533-3.413-8.533-8.533v-51.2c0-5.12,3.413-8.533,8.533-8.533h102.4
		c5.12,0,8.533,3.413,8.533,8.533V101.4h119.467V58.733c0-5.12,3.413-8.533,8.533-8.533h102.4c5.12,0,8.533,3.413,8.533,8.533
		V316.44c0,2.56-0.853,5.12-3.413,6.827c-1.707,1.707-4.267,2.56-6.827,1.707c-5.12-0.853-10.24-1.707-15.36-1.707
		c-46.933,0-85.333,38.4-85.333,85.333c0,27.307,13.653,53.76,36.693,69.973c3.413,2.56,4.267,5.973,3.413,9.387
		C324.267,491.373,320.853,493.933,317.44,493.933z"/>
	<path d="M55.467,144.067c0-5.12-3.413-8.533-8.533-8.533s-8.533,3.413-8.533,8.533c0,5.12,3.413,8.533,8.533,8.533
		S55.467,149.187,55.467,144.067"/>
	<path d="M287.573,459.8H81.067c-5.12,0-8.533-3.413-8.533-8.533v-358.4c0-5.12,3.413-8.533,8.533-8.533h68.267
		c5.12,0,8.533,3.413,8.533,8.533v8.533h119.467v-8.533c0-5.12,3.413-8.533,8.533-8.533h68.267c5.12,0,8.533,3.413,8.533,8.533
		V316.44c0,4.267-2.56,7.68-6.827,8.533c-40.96,6.827-69.973,42.667-69.973,83.627c0,13.653,3.413,26.453,9.387,38.4
		c1.707,2.56,0.853,5.973,0,8.533C293.547,458.093,290.133,459.8,287.573,459.8z M89.6,442.733h185.173
		c-4.267-11.093-5.973-22.187-5.973-34.133c0-46.933,31.573-87.893,76.8-98.987V101.4h-51.2v8.533c0,5.12-3.413,8.533-8.533,8.533
		H149.333c-5.12,0-8.533-3.413-8.533-8.533V101.4H89.6V442.733z"/>
	<path d="M362.667,459.8c-2.56,0-5.12-0.853-6.827-3.413l-25.6-34.133c-2.56-3.413-1.707-9.387,1.707-11.947
		c3.413-2.56,9.387-1.707,11.947,1.707l25.6,34.133c2.56,3.413,1.707,9.387-1.707,11.947
		C366.08,458.947,364.373,459.8,362.667,459.8z"/>
	<path d="M362.667,459.8c-1.707,0-3.413-0.853-5.12-1.707c-4.267-2.56-5.12-7.68-2.56-11.947l51.2-76.8
		c2.56-4.267,7.68-5.12,11.947-2.56s5.12,7.68,2.56,11.947l-51.2,76.8C367.787,458.093,365.227,459.8,362.667,459.8z"/>
</g>
<g>
</g>
<g>
</g>
<g>
</g>
<g>
</g>
<g>
</g>
<g>
</g>
<g>
</g>
<g>
</g>
<g>
</g>
<g>
</g>
<g>
</g>
<g>
</g>
<g>
</g>
<g>
</g>
<g>
</g>
</svg>
